HIERARCHY
ROOT Hips
{
	OFFSET -0.003143 -0.051731 -0.040956
	CHANNELS 6 Xposition Yposition Zposition Zrotation Yrotation Xrotation 
	JOINT LHipJoint
	{
		OFFSET -0.024170 -0.015756 0.006791
		CHANNELS 3 Zrotation Yrotation Xrotation
		JOINT LeftUpLeg
		{
			OFFSET -0.001189 0.027718 -0.014104
			CHANNELS 3 Zrotation Yrotation Xrotation
			JOINT LeftLeg
			{
				OFFSET 0.008993 0.005682 0.031892
				CHANNELS 3 Zrotation Yrotation Xrotation
				JOINT LeftFoot
				{
					OFFSET 0.070649 0.004315 -0.051271
					CHANNELS 3 Zrotation Yrotation Xrotation
					JOINT LeftToeBase
					{
						OFFSET 0.009636 0.004245 0.025517
						CHANNELS 3 Zrotation Yrotation Xrotation
						End Site
						{
							OFFSET 0.000000 0.000000 0.000000
						}
					}
				}
			}
		}
	}
	JOINT RHipJoint
	{
		OFFSET 0.009783 -0.048468 -0.041794
		CHANNELS 3 Zrotation Yrotation Xrotation
		JOINT RightUpLeg
		{
			OFFSET -0.048035 -0.041426 -0.113013
			CHANNELS 3 Zrotation Yrotation Xrotation
			JOINT RightLeg
			{
				OFFSET -0.182160 -0.178124 -0.137122
				CHANNELS 3 Zrotation Yrotation Xrotation
				JOINT RightFoot
				{
					OFFSET -0.148041 -0.136199 -0.046902
					CHANNELS 3 Zrotation Yrotation Xrotation
					JOINT RightToeBase
					{
						OFFSET -0.018592 -0.122742 -0.128803
						CHANNELS 3 Zrotation Yrotation Xrotation
						End Site
						{
							OFFSET 0.000000 0.000000 0.000000
						}
					}
				}
			}
		}
	}
	JOINT LowerBack
	{
		OFFSET -0.139892 -0.138034 -0.142814
		CHANNELS 3 Zrotation Yrotation Xrotation
		JOINT Spine
		{
			OFFSET -0.097887 -0.143450 -0.194328
			CHANNELS 3 Zrotation Yrotation Xrotation
			JOINT Spine1
			{
				OFFSET -0.146047 -0.130986 -0.135258
				CHANNELS 3 Zrotation Yrotation Xrotation
				JOINT Neck
				{
					OFFSET -0.141305 -0.115003 -0.105259
					CHANNELS 3 Zrotation Yrotation Xrotation
					JOINT Neck1
					{
						OFFSET -0.106859 -0.105128 -0.016965
						CHANNELS 3 Zrotation Yrotation Xrotation
						JOINT Head
						{
							OFFSET 0.005835 -0.006758 0.007747
							CHANNELS 3 Zrotation Yrotation Xrotation
							End Site
							{
								OFFSET 0.000000 0.000000 0.000000
							}
						}
					}
				}
				JOINT LeftShoulder
				{
					OFFSET 0.025764 -0.016464 -0.020917
					CHANNELS 3 Zrotation Yrotation Xrotation
					JOINT LeftArm
					{
						OFFSET 0.000221 0.033271 0.009506
						CHANNELS 3 Zrotation Yrotation Xrotation
						JOINT LeftForeArm
						{
							OFFSET 0.016238 0.050525 -0.032884
							CHANNELS 3 Zrotation Yrotation Xrotation
							JOINT LeftHand
							{
								OFFSET -0.002365 0.001143 0.060198
								CHANNELS 3 Zrotation Yrotation Xrotation
								JOINT LeftFingerBase
								{
									OFFSET 0.038327 0.019835 -0.025466
									CHANNELS 3 Zrotation Yrotation Xrotation
									JOINT LeftHandIndex1
									{
										OFFSET -0.025140 -0.032593 -0.036076
										CHANNELS 3 Zrotation Yrotation Xrotation
										End Site
										{
											OFFSET 0.000000 0.000000 0.000000
										}
									}
								}
								JOINT LThumb
								{
									OFFSET -0.044597 -0.048769 -0.013414
									CHANNELS 3 Zrotation Yrotation Xrotation
									End Site
									{
										OFFSET 0.000000 0.000000 0.000000
									}
								}
							}
						}
					}
				}
				JOINT RightShoulder
				{
					OFFSET -0.042820 -0.036714 -0.085759
					CHANNELS 3 Zrotation Yrotation Xrotation
					JOINT RightArm
					{
						OFFSET -0.030024 0.018510 -0.022719
						CHANNELS 3 Zrotation Yrotation Xrotation
						JOINT RightForeArm
						{
							OFFSET -0.050862 -0.033217 0.010087
							CHANNELS 3 Zrotation Yrotation Xrotation
							JOINT RightHand
							{
								OFFSET 0.010468 0.037677 0.061836
								CHANNELS 3 Zrotation Yrotation Xrotation
								JOINT RightFingerBase
								{
									OFFSET 0.088313 0.108361 0.084978
									CHANNELS 3 Zrotation Yrotation Xrotation
									JOINT RightHandIndex1
									{
										OFFSET 0.083113 0.067546 0.040218
										CHANNELS 3 Zrotation Yrotation Xrotation
										End Site
										{
											OFFSET 0.000000 0.000000 0.000000
										}
									}
								}
								JOINT RThumb
								{
									OFFSET 0.042369 0.011935 -0.000386
									CHANNELS 3 Zrotation Yrotation Xrotation
									End Site
									{
										OFFSET 0.015885 -0.008476 0.015928
									}
								}
							}
						}
					}
				}
			}
		}
	}
}
MOTION
Frames: 4
Frame Time: 0.008333
0.255817 0.196682 0.122874 0.073530 0.087911 0.131823 0.165474 0.039206 -0.055465 -0.136714 -0.104264 0.031791 0.031295 -0.115935 -0.143485 -0.237996 -0.259583 -0.210842 -0.177939 -0.097403 -0.089617 -0.171216 -0.132655 0.044556 0.133659 0.070551 0.101469 0.064590 0.176209 0.260676 0.080250 -0.046218 -0.092923 -0.097750 -0.120708 -0.291570 -0.388953 -0.130493 -0.009979 0.056736 0.126379 0.047547 0.013058 -0.090728 -0.039103 0.139846 0.061815 -0.050650 -0.038175 -0.360559 -0.358240 -0.063912 0.063299 0.116093 0.081691 0.132426 0.114500 0.028401 0.035190 0.134512 0.257653 0.088896 0.175960 0.142020 0.052368 0.068620 0.027329 0.257026 0.486480 0.569569 0.547759 0.562704 0.538207 0.620950 0.618975 0.579697 0.207197 0.167021 0.168353 0.085124 -0.049296 0.015125 0.004100 0.068961 0.251828 0.262586 0.207003 0.215527 0.161420 0.331780 0.439288 0.254851 0.340054 0.362585 0.337540 0.295438
0.242434 0.149944 0.067372 0.055708 0.066294 0.151268 0.250038 0.090344 -0.018160 -0.099588 -0.085452 0.081936 0.104174 -0.069523 -0.109543 -0.180428 -0.189010 -0.157419 -0.120799 -0.053316 -0.050742 -0.144122 -0.105675 0.017840 0.084903 0.010711 0.047067 0.003257 0.091979 0.206415 0.050337 -0.103133 -0.123735 -0.118010 -0.126895 -0.271038 -0.391998 -0.140425 -0.035901 -0.011411 0.079623 0.068846 0.013430 -0.027224 0.025516 0.160791 0.104011 -0.028476 -0.042037 -0.346637 -0.373224 -0.093221 0.056188 0.106648 0.094721 0.140058 0.101174 0.035163 0.032674 0.116942 0.273944 0.119854 0.194154 0.195616 0.078188 0.138930 0.132521 0.326061 0.565429 0.584849 0.542632 0.522098 0.508234 0.578588 0.573666 0.539257 0.170884 0.154392 0.152852 0.124716 0.011313 0.081468 0.074751 0.125106 0.295756 0.336992 0.282332 0.228879 0.167644 0.306063 0.389598 0.244529 0.336614 0.351855 0.316357 0.285367
0.221033 0.155208 0.081593 0.117252 0.110845 0.180504 0.255184 0.129888 0.039262 -0.073694 -0.080969 0.061523 0.090379 -0.011801 -0.047356 -0.168633 -0.169507 -0.166284 -0.137008 -0.093773 -0.083031 -0.123669 -0.099335 -0.091294 -0.010276 -0.185643 -0.140628 -0.029666 -0.039602 0.139891 0.022561 -0.200099 -0.182872 -0.119336 -0.142010 -0.295398 -0.425609 -0.220509 -0.132393 -0.062473 0.058303 0.072739 0.013754 0.008132 0.075116 0.097136 0.109249 0.050471 0.036597 -0.218930 -0.234003 -0.047771 0.110939 0.212047 0.161239 0.258830 0.208723 0.124437 0.078700 0.172039 0.327057 0.129861 0.166188 0.242026 0.161680 0.226402 0.224750 0.278647 0.559582 0.516726 0.502075 0.406709 0.368870 0.464433 0.461026 0.477666 0.130975 0.147130 0.104731 0.096191 0.026695 0.095654 0.121648 0.202829 0.319920 0.361079 0.320543 0.271902 0.197452 0.282486 0.363229 0.210017 0.334167 0.284436 0.232597 0.177550
0.170811 0.100444 0.043751 0.053553 0.092741 0.156735 0.229240 0.100946 0.036808 -0.062770 -0.102048 0.046519 0.074487 -0.046547 -0.039074 -0.177674 -0.174002 -0.151307 -0.141756 -0.134858 -0.153890 -0.185661 -0.141609 -0.135837 -0.047892 -0.246483 -0.203013 -0.058450 -0.076655 0.102068 -0.040153 -0.229413 -0.236017 -0.107895 -0.089650 -0.306239 -0.431558 -0.225306 -0.158958 -0.054079 0.027065 0.046102 -0.002739 -0.033699 0.076028 0.078870 0.102228 0.023376 -0.002065 -0.280545 -0.352369 -0.201142 -0.075720 -0.010575 -0.044619 0.086616 0.091910 -0.013206 -0.060626 0.101146 0.229396 0.114113 0.128387 0.282500 0.206972 0.289171 0.286429 0.250187 0.514953 0.456872 0.424437 0.348922 0.325632 0.354468 0.348475 0.411825 0.057618 0.081576 0.107931 0.081593 0.020559 0.087553 0.092471 0.216565 0.348508 0.376459 0.321669 0.247684 0.193591 0.189440 0.276677 0.121124 0.252456 0.214778 0.177620 0.145550
